<svg version="1.1" id="Layer_1" xmlns="http://www.w3.org/2000/svg" xmlns:xlink="http://www.w3.org/1999/xlink" x="0px" y="0px" viewBox="0 0 500 500">
	<polyline fill="none" stroke="#48413B" stroke-width="60" stroke-linejoin="round" points="29,475 30.41411357644702,474.98420569661766 31.82815565927426,474.9683414778412 33.24205476201125,474.9523374352678 34.6557394124854,474.93612367447713 36.06913815996919,474.9196303220204 37.48217958232513,474.90278753240773 38.894792293147965,474.8855254950927 40.306904948903224,474.86777444145326 41.71844625606154,474.84946465176876 43.12934497822792,474.8305264621915 44.539529943265336,474.8108902717132 45.948930050411875,474.7904865491253 47.357474277390764,474.76924583997175 48.76509168751254,474.7470987734943 50.17171143676863,474.72397606956986 51.57726278091576,474.6998085456382 52.98167508255022,474.6745271236202 54.38487781817164,474.6480628368256 55.78680058523524,474.6203468368498 57.187373109192016,474.59131040045827 58.586525250516154,474.56088493645905 59.98418701171894,474.529001992562 61.38028854434839,474.4955932622234 62.77476015597411,474.46059059147717 64.16753231715644,474.4239259857499 65.55853566839933,474.3855316166603 66.9477010270863,474.34533982880174 68.33495939439852,474.30328314650836 69.72024196221477,474.25929428060186 71.1034801199921,474.21330613512094 72.48460546162688,474.1652518140304 73.86354979229533,474.115064627911 75.24024513527294,474.0626781006281 76.61462373873209,474.0080259759795 77.9866180825172,473.9510422243207 79.35616088489664,473.89166104916814 80.72318510929092,473.8298168937784 82.08762397097624,473.7654444477041 83.44941094376286,473.698478653325 84.8084797666478,473.62885471235325 86.16476445044077,473.55650809231366 87.51819928436305,473.48137453299654 88.86871884261856,473.4033900528839 90.21625799093636,473.3224909555474 91.56075189308399,473.238613836018 92.90213601735108,473.15169558712637 94.24034614300248,473.0616734058137 95.57531836670026,472.96848479941167 96.90698910889392,472.87206759189195 98.23529512017845,472.7723599300836 99.56017348761905,472.66930028985837 100.88156164104251,472.562827482283 102.19939735929407,472.45288065973824 103.51361877645954,472.3393993220033 104.82416438805184,472.2223233223061 106.13097305716136,472.10159287333767 107.43398402056965,471.9771485532309 108.73313689482566,471.84893131150284 110.02837168228399,471.71688247495945 111.31962877710475,471.5809437535629 112.6068489712139,471.44105724626075 113.8899734602242,471.2971654467758 115.16894384931543,471.1492112493568 116.44370215907392,470.99713795448884 117.71419083129045,470.8408892745632 118.980352734716,470.68040933950647 120.24213117077477,470.51564270236696 121.4994698792341,470.34653434485983 122.75231304383033,470.17302968286845 124.00060529785053,469.99507457190316 125.24429172966893,469.8126153125154 126.48331788823825,469.62559865566766 127.71762978853457,469.43397180805846 128.94717391695588,469.23768243740153 130.17189723667337,469.036678677659 131.3917471929352,468.830909134228 132.60667171832165,468.62032288908006 133.81661923795212,468.40486950585284 135.02153867464233,468.1844990348938 136.22137945401215,467.959162018255 137.416091509543,467.72880949463894 138.6056252875843,467.4933930042947 139.789931752309,467.2528645938639 140.968962390617,467.00717682117556 142.1426692169864,466.7562827599911 143.31100477827215,466.50013600469606 144.4739221584511,466.2386906749412 145.63137498331383,465.9719014202303 146.7833174251018,465.6997234244552 147.92970420709028,465.42211241037717 149.0704906081158,465.13902464405504 150.2056324670483,464.8504169392182 151.33508618720737,464.55624666158513 152.45880874072157,464.2564717331272 153.57675767283152,463.9510506362762 154.68889110613497,463.6399424180758 155.7951677447749,463.3231066942772 156.89554687856872,463.00050365337756 157.9899883870795,462.6720940606006 159.07845274362785,462.3378392618207 160.16090101924465,461.99770118742777 161.23729488656375,461.6516423561345 162.30759662365492,461.29962587872427 163.37176911779576,460.9416154617401 164.42977586918317,460.577575411114 165.48158099458306,460.2074706357364 166.5271492309189,459.83126665096495 167.56644593879773,459.4489295820734 168.59943710597432,459.0604261676385 169.62608935075224,458.6657237628668 170.646369925322,458.2647903428583 171.66024671903577,457.8575945058097 172.66768826161854,457.44410547615394 173.66866372631506,457.02429310763813 174.6631429329724,456.59812788633786 175.65109635105807,456.1655809336088 176.63249510261306,455.72662400897445 177.60731096513945,455.28122951295006 178.57551637442273,454.8293704898028 179.53708442728833,454.371020630247 180.49198888429166,453.90615427407533 181.44020417234225,453.4347464127248 182.38170538726087,452.95677269177713 183.31646829627007,452.4722094133949 184.24446934041737,451.98103353869084 185.16568563693116,451.48322269003165 186.08009498150886,450.978755153276 186.9876758505375,450.4676098799459 187.88840740324594,449.94976648933135 188.7822694837889,449.4252052705285 189.6692426232627,448.89390718441075 190.54930804165198,448.3558538655327 191.4224476497077,447.8110276239664 192.28864405075615,447.25941144707065 193.1478805424385,446.7009890011922 194.00014111838107,446.1357446332989 194.8454104697958,445.5636633725451 195.68367398701153,444.98473093176875 196.51491776093445,444.39893370892025 197.33912858443938,443.8062587884224 198.1562939536902,443.20669394246187 198.9664020693904,442.60022763221235 199.76944183796297,441.9868490089881 200.56540287265966,441.36654791532897 201.35427549459976,440.739314886016 202.13605073373793,440.1051411490182 202.91072032976115,439.46401862636935 203.67827673291484,438.8159399349761 204.43871310475774,438.1608983873562 205.19202331884583,437.4988879923072 205.93820196134484,436.82990345550553 206.67724433157184,436.1539401800361 207.40914644246513,435.47099426685173 208.13390502098292,434.78106251516334 208.8515175084308,434.0841424227598 209.5619820607175,433.3802321862582 210.26529754853925,432.66933070128425 210.9614635574928,431.9514375625827 211.65048038811688,431.2265530640579 212.33234905586198,430.4946781987441 213.00707129098907,429.75581465870675 213.67464953839635,429.00996483487273 214.33508695737476,428.25713181679157 214.98838742129226,427.4973193923263 215.6345555172063,426.73053204727483 216.2735965454052,425.9567749649214 216.9055165188782,425.1760540255181 217.53032216271387,424.38837580569685 218.148020913428,423.59374757781194 218.75862091821972,422.7921773092126 219.3621310341568,421.9836736614464 219.95856082729006,421.168245989393 220.54792057169658,420.3459043403287 221.13022124845253,419.5166594529218 221.70547454453498,418.68052275615867 222.27369285165307,417.83750636820076 222.8348892650091,416.98762309517315 223.38907758198877,416.1308864298835 223.93627230078172,415.267310550473 224.47648861893146,414.39691031899866 225.00974243181582,413.5197012799469 225.53605033105737,412.6356996586793 226.05542960286417,411.74492235980995 226.56789822630128,410.84738696551506 227.07347487149292,409.9431117337748 227.57217889775526,409.03211559654744 228.0640303516608,408.1144181578762 228.5490499650333,407.19003969192875 229.02725915287525,406.2590011409701 229.4986800112257,405.32132411326813 229.96333531495108,404.3770308809329 230.42124851546777,403.42614437768935 230.87244373839667,402.468688196584 231.316945781151,401.5046865876258 231.7547801104563,400.534164455361 232.18597285980394,399.5571473563826 232.6105508268378,398.573661496775 233.02854147067438,397.5837337294933 233.4399729091571,396.5873915516779 233.84487391604443,395.584663101905 234.24327391813245,394.5755771573725 234.63520299231251,393.56016313102265 235.02069186256318,392.5384510686007 235.39977189687815,391.5104716456499 235.7724751041293,390.4762561644447 236.13883413086594,389.4358365508599 236.49888225805017,388.38924535117866 236.85265339772872,387.33651572883736 237.2001820896419,386.2776814611096 237.54150349776955,385.21277693572836 237.87665340681474,384.1418371474476 238.2056682186253,383.0648976945422 238.52858494855369,381.9819947752487 238.84544122175544,380.89316518414523 239.1562752694267,379.7984463084723 239.4611259249812,378.69787612439376 239.7600326201669,377.5914931931996 240.05303538112273,376.4793366574495 240.3401748243763,375.361446237059 240.62149215278194,374.23786222532715 240.89702915140074,373.1086254849075 241.16682818332185,371.9737774437217 241.43093218542637,370.8333600908168 241.68938466409364,369.68741597216643 241.94222969085058,368.53598818641615 242.1895118979647,367.37912038057357 242.4312764739808,366.216856745644 242.66756915920212,365.0492420122109 242.89843624111657,363.8763214459634 243.12392454976774,362.69814084316926 243.34408145307216,361.5147465260956 243.55895485208242,360.32618533837666 243.76859317619704,359.13250464032933 243.97304537831783,357.93375230421736 244.17236092995435,356.7299767094641 244.36658981627704,355.52122673781446 244.5557825311185,354.307551768447 244.73999007192438,353.0890016730359 244.91926393465354,351.86562681076396 245.09365610862855,350.6374780232865 245.2632190713368,349.4046066296475 245.42800578318278,348.16706442114753 245.58806968219199,346.92490365616493 245.74346467866746,345.6781770549296 245.8942451497984,344.42693779425144 246.04046593422282,343.1712395022024 246.18218232654363,341.91113625275403 246.31945007179903,340.6466825603698 246.4523253598884,339.37793337455383 246.5808648199531,338.1049440743561 246.7051255147137,336.8277704628345 246.82516493476365,335.5464687614745 246.9410409928205,334.2610956045671 247.05281201793437,332.9717080335455 247.1605367496554,331.67836349128106 247.26427433215963,330.3811198163388 247.36408430833467,329.0800352371938 247.46002661382553,327.7751683664085 247.5521615710411,326.46657819477105 247.64054988312176,325.1543240853969 247.7252526278696,323.8384657677922 247.80633125164,322.51906333188066 247.88384756319766,321.1961772219951 247.95786372753548,319.8698682308326 248.0284422596581,318.5401974933759 248.09564601833063,317.20722648077924 248.15953819979262,315.8710169942217 248.22018233143856,314.53163115872707 248.27764226546537,313.18913141695145 248.33198217248687,311.8435805229389 248.3832665351172,310.4950415358462 248.4315601415222,309.14357781363685 248.4769280789409,307.78925300674564 248.51943572717687,306.4321310517132 248.5591487520601,305.0722761647928 248.5961330988807,303.70975283552855 248.63045498579422,302.3446258203066 248.6621808972,300.97696013587955 248.69137757709277,299.6068210528647 248.71811202238834,298.23427408921725 248.74245147622392,296.85938500367854 248.76446342123387,295.4822197891999 248.7842155728014,294.1028446663438 248.80177587228732,292.72132607666174 248.81721248023572,291.3377306760501 248.83059376955816,289.9521253280846 248.84198831869628,288.5645770973339 248.8514649047641,287.17515324265366 248.85909249667034,285.7839212104599 248.86494024822164,284.39094862798527 248.86907749120712,282.99630329651586 248.87157372846548,281.6000531846113 248.87249862693434,280.20226642130774 248.87192201068427,278.80301128930546 248.86991385393569,277.40235621814026 248.86654427406216,276.0003697773407 248.86188352457825,274.59712066957115 248.85600198811446,273.19267772376173 248.848970169379,271.78710988822525 248.84085868810732,270.3804862237626 248.83173827200028,268.97287589675676 248.82167974965122,267.564348172256 248.8107540434636,266.1549724070477 248.7990321625582,264.7448180427225 248.78658519567293,263.3339545987305 248.77348430405345,261.92245166542887 248.75980071433753,260.51037889712336 248.74560571143212,259.0978060051028 248.73097063138522,257.68480275066787 248.71596685425192,256.27143893815514 248.70066579695703,254.85778440795679 248.68513890615287,253.44390902953634 248.66945765107513,252.02988269444214 248.65369351639558,250.61577530931797 248.63791799507408,249.20165678891254 248.62220258120902,247.78759704908813 248.60661876288813,246.37366599982906 248.59123801503972,244.95993353825054 248.57613179228522,243.5464695416093 248.5613715217937,242.1333438603158 248.54702859613943,240.7206263109492 248.53317436616237,239.3083866692758 248.51988013383354,237.8966946632716 248.50721714512443,236.4856199661494 248.49525658288286,235.0752321893917 248.48406955971456,233.66560087578952 248.47372711087183,232.25679549248812 248.46430018715057,230.84888542404053 248.4558596477946,229.44193996546898 248.44847625341032,228.03602831533553 248.44222065889045,226.63121956882222 248.4371634063487,225.2275827108217 248.43337491806548,223.82518660903875 248.43092548944603,222.42410000710353 248.42988528199047,221.0243915176973 248.43032431627825,219.6261296156912 248.43231246496563,218.22938263129896 248.43591944579896,216.83421874324364 248.44121481464256,215.44070597194008 248.44826795852336,214.04891217269278 248.45714808869235,212.6589050289105 248.46792423370334,211.27075204533799 248.48066523251026,209.8845205413054 248.4954397275833,208.50027764399664 248.51231615804463,207.1180902817365 248.53136275282486,205.73802517729808 248.55264752383965,204.36014884123045 248.57623825918924,202.98452756520754 248.60220251637912,201.61122741539936 248.63060761556466,200.24031422586506 248.66152063281908,198.8718535919699 248.69500839342578,197.50591086382542 248.73113746519616,196.14255113975491 248.76997415181253,194.78183925978323 248.81158448619806,193.42383979915314 248.85603422391338,192.0686170618676 248.90338883658129,190.71623507425983 248.95371350533938,189.36675757859007 249.00707311432217,188.02024802667205 249.06353224417262,186.67676957352757 249.12315516558434,185.33638507107094 249.1860058328742,183.99915706182412 249.25214787758742,182.6651477726624 249.32164460213397,181.33441910859153 249.39455897345883,180.00703264655772 249.47095361674505,178.68304962928966 249.55089080915144,177.36253095917442 249.6344324735847,176.04553719216722 249.7216401725076,174.7321285317359 249.81257510178227,173.42236482284062 249.90729808455106,172.11630554594956 250.005869565154,170.8140098110906 250.1083496030847,169.51553635194068 250.21479786698418,168.22094351995224 250.3252736286742,166.93028927851833 250.43983575723007,165.64363119717632 250.5585427130939,164.36102644585054 250.68145254222844,163.0825317891361 250.8086228703126,161.80820358062198 250.94011089697915,160.53809775725557 251.0759733900942,159.27226983374953 251.2162666800813,158.01077489703005 251.3610466542877,156.75366760072802 251.51036875139616,155.5010021597144 251.66428795588075,154.25283234467787 251.82285879250878,153.00921147674853 251.98613532088822,151.77019242216545 252.15417113006166,150.5358275869902 252.32701933314763,149.30616891186634 252.5047325620295,148.08126786682527 252.68736296209167,146.86117544613944 252.8749621870059,145.6459421632229 253.06758139356546,144.43561804557976 253.26527123656973,143.23025262980195 253.46808186375844,142.02989495661518 253.6760629107974,140.83459356597507 253.88926349631473,139.64439649221333 254.1077322169889,138.45935125923415 254.3315171426893,137.27950487576192 254.56066581166948,136.10490383064047 254.79522522581277,134.93559408818408 255.03524184593272,133.7716210835813 255.2807615871267,132.61302971835107 255.53182981418485,131.45986435585326 255.7884913370529,130.31216881685185 256.050790406352,129.16998637513285 256.31877070895325,128.0333597531772 256.59247536360914,126.90233111788882 256.8719469166417,125.77694207637711 257.157227337688,124.6572336717972 257.4483580155031,123.54324637924498 257.7453797538212,122.43502010171011 258.0483327672756,121.33259416608558 258.35725667737677,120.23600731923477 258.67219050855056,119.14529772411714 258.9931726842357,118.0605029559722 259.32024102304166,116.98165999856116 259.6534327349665,115.90880524046952 259.99278441767603,114.84197447146755 260.3383320528444,113.78120287893188 260.6901110025554,112.72652504432654 261.04815600576666,111.6779749397445 261.41250117483565,110.63558592451125 261.7831799921086,109.59939074184837 262.16022530657204,108.56942151559906 262.54366933056826,107.54570974701653 262.93354363657375,106.52828631161299 263.32987915404226,105.51718145607288 263.73270616631186,104.5124247952279 264.1420543075763,103.51404530909531 264.5579525599222,102.52207133998047 264.98042925043023,101.53653058964238 265.40951204834283,100.55745011652334 265.8452279622974,99.58485633304349 266.28760333762483,98.61877500295924 266.73666385371575,97.65923123878719 267.1924345214524,96.70624949929294 267.65493968070706,95.75985358704474 268.1242029979087,94.82006664603398 268.60024746367606,93.88691115936012 269.0830953905189,92.96040894698291 269.57276841060616,92.0405811635402 270.0692874736034,91.12744829623239 270.5726728445776,90.2210301627739 271.08294410197044,89.32134590941149 271.6001201356409,88.42841400900926 272.12421914497617,87.54225225920192 272.6552586370713,86.66287778061462 273.1932554249792,85.79030701515097 273.73822562602885,84.92455572434915 274.2901846602137,84.0656389878053 274.8491472486497,83.21357120166607 275.41512741210323,82.36836607718863 275.9881384695892,81.53003663936971 276.5681930370386,80.69859522564326 277.1553030260377,79.8740534846462 277.7494796426362,79.05642237505435 278.350733386227,78.24571216448601 278.9590740484963,77.44193242847507 279.5745107124442,76.64509204951418 280.1970517514767,75.85519921616577 280.82670482856804,75.07226142224357 281.4634768954947,74.29628546606324 282.1073741921401,73.52727744976232 282.75840224587057,72.76524277869026 283.41656587098265,72.01018616086787 284.0818691682219,71.26211160651627 284.75431552437226,70.52102242765619 285.433907611918,69.78692123777671 286.1206473887762,69.05980995157347 286.8145360981009,68.3396897847581 287.5155742681588,67.6265612539355 288.2237617122765,66.92042417655347 288.93909752885924,66.22127767091979 289.66158010148087,65.52912015629101 290.3912070990457,64.8439493530305 291.12797547602145,64.16576228283634 291.8718814727438,63.49455526903887 292.6229206157924,62.830323936968966 293.38108771843827,62.1730632143948 294.1463768811625,61.522767332029616 294.91878149224584,60.879429824108456 295.6982942284304,60.243043529034594 296.48490705565166,59.61360059009587 297.27861122984166,58.99109245625033 298.07939729780395,58.37550988298119 298.88725509815856,57.76684293322154 299.702173762358,57.165080978347646 300.5241417157744,56.570212699242234 301.35314667885694,55.98222608742623 302.18917566835955,55.401108446259286 303.0322149986393,54.826846392210086 303.8822502830252,54.259425856194184 304.73926643525675,53.69883208498072 305.6032476709922,53.14504964266854 306.47417750938735,52.598062412228956 307.3520387747438,52.05785359711774 308.2368135982258,51.52440572295512 309.1284834196478,50.99770063927241 310.02702898933023,50.4777195213278 310.93243037002435,49.96444287198841 311.8446669389059,49.457850523680065 312.76371738963775,48.95792164040415 313.68955973450016,48.464634719820936 314.62217130658956,47.977967595400116 315.56152876208535,47.49789743863727 316.50760808258434,47.02440076133661 317.4603845775021,46.55745341795989 318.41983288654274,46.09703060804111 319.3859269822343,45.64310687866612 320.35864017253175,45.19565612701831 321.337945103486,44.75465160298859 322.3238137619795,44.320065911850406 323.3162174785276,43.89187101699957 324.31512693014486,43.4700382427572 325.32051214327805,43.05453827723801 326.3323424968031,42.645341175280805 327.3505867250874,42.242416361443475 328.37521292111603,41.84573263306038 329.4061885396826,41.455258163362316 330.443480400644,41.070960504659524 331.4870546922378,40.69280659158636 332.53687697446406,40.3207627444076 333.5929121825289,39.95479467238658 334.65512463035077,39.594867477214166 335.7234780141297,39.240945656498525 336.797935415977,38.89299310731565 337.87845930760733,38.55097312981894 338.96501155409135,38.21484843090985 340.0575534176693,37.8845811279669 341.15604556162475,37.56013275263359 342.2604480542182,37.24146425466603 343.37072037268007,36.92853600583686 344.4868214072633,36.62130780389896 345.60870946535385,36.31973887660513 346.7363422756403,36.02378788578545 347.8696769923407,35.73341293148093 349.0086701994874,35.44857155613386 350.15327791526823,35.169220748832856 351.30345559642484,34.89531694961471 352.4591581427071,34.626816053819596 353.6203399013828,34.36367341650197 354.7869546718033,34.105843856895035 355.9589557100232,33.85328166292851 357.1362957334746,33.60594059579989 358.3189269256958,33.36377389459858 359.5068009411126,33.126734280981395 360.6998689098728,32.894773963900946 361.8980814427331,32.66784464438416 363.1013886359982,32.445897520362564 364.30974007651105,32.228883291552336 365.5230848466939,32.01675216438406 366.74137152964033,31.809453856982373 367.9645482142568,31.606937604194002 369.1925625004534,31.40915216266393 370.42536150438445,31.216045815960285 371.6628918637364,31.027566379745394 372.9050997430639,30.84366120699451 374.1519308391736,30.66427719326026 375.4033303865544,30.48936078198318 376.65924316285395,30.31885796984733 377.9196134944005,30.15271431218048 379.18438526177073,29.99087492839851 380.4535019054013,29.833284507493715 381.7269064312449,29.679887313565473 383.00454141646946,29.53062719139382 384.2863490152007,29.38544757205551 385.5722709643064,29.244291478579953 386.86224858922265,29.10710153164763 388.1562228098212,28.973819955327485 389.45413414631804,28.84438858285472 390.75592272522033,28.718748862447512 392.0615282853146,28.59684186316167 393.3708901836922,28.47860828078427 394.68394740181384,28.363988443763674 396.00063855161136,28.252922319176662 397.3209018816265,28.145349518731905 398.6446752831861,28.041209304808376 399.9718962966123,27.9404405965293 401.30250211746926,27.842981975870202 402.63642960284335,27.74877169380062 403.97361527765696,27.65774767645894 405.3139953410163,27.569847531359585 406.6575056725917,27.485008553632497 408.00408183902874,27.40316773229341 409.3536591003926,27.324261756544956 410.706172416641,27.24822702210753 412.06155645412906,27.1749996375799 413.41974559214185,27.104515430828144 414.78067392945695,27.03670995540284 416.14427529093405,26.97151849698372 417.5104832341328,26.90887607985087 418.8792310559568,26.84871747338252 420.2504517993241,26.79097719857782 421.62407825986224,26.735589534604685 423.00004299262946,26.68248852537215 424.37827831885846,26.63160798612546 425.7587163327248,26.582881510064794 427.14128890813663,26.536242474985897 428.52592770554816,26.49162404994189 429.9125641787929,26.44895920192687 431.3011295819384,26.408180702578647 432.69155497616117,26.36922113490192 434.0837712366397,26.3320129000096 435.47770905946766,26.29648822388276 436.87329896858375,26.26257916414812 438.27047132271963,26.230217616872153 439.6691563223635,26.19933532337103 441.0692840167404,26.169863877037187 442.4707843108072,26.141734730179223 443.8735869722619,26.11487920087717 445.27762163856653,26.089228479850192 446.6828178239841,26.064713637337547 448.0891049266266,26.041265629991813 449.4964122355151,26.018815307782916 450.9046689376507,25.997293420912854 452.31380412509634,25.9766306267411 453.72374680206696,25.956757496718467 455.1344258920293,25.93760452333015 456.5457702448092,25.919102127046074 457.9577086437072,25.901180663279035 459.3701698126192,25.883770429349283 460.78308242316507,25.86680167145437 462.1963751018204,25.8502045916444 463.6099764370546,25.83390935480236 465.0238149864716,25.817846095626805 466.43781928395407,25.80194492561907 467.8519178468101,25.786135940071688 469.2660391829212,25.77034922505834 470.6801117978916,25.754514864426255 472.09406420219767,25.738562946786885 473.5078249183368,25.72242357250741 474.9213224879748,25.706026860700433"></polyline>	
</svg>
