<svg version="1.1" xmlns="http://www.w3.org/2000/svg" xmlns:xlink="http://www.w3.org/1999/xlink" x="0px" y="0px" viewBox="0 0 500 500">
	<polygon  fill="#48413B" fill-opacity="0.25" stroke-width="50" stroke="#48413B" stroke-linejoin="round" points="47,105 47,104 48,103 49,102 51,98 55,94 57,92 64,85 68,82 70,80 74,77 76,74 79,73 82,70 85,68 88,66 91,63 94,61 96,60 106,56 110,54 113,53 115,53 116,52 118,52 122,52 127,52 129,52 134,53 142,58 148,61 152,63 159,66 163,68 167,70 168,71 170,72 171,73 174,75 176,77 178,78 183,81 187,83 191,86 194,89 197,91 200,93 203,96 205,97 209,100 213,103 215,104 221,107 226,107 230,108 233,108 235,108 237,108 242,108 245,106 250,105 252,103 256,103 259,101 264,98 270,95 274,92 280,89 284,88 291,85 293,84 297,82 299,81 301,81 306,78 309,77 315,76 321,74 329,70 335,68 339,66 343,65 349,63 354,62 360,60 366,59 372,58 379,55 384,55 389,55 391,55 392,55 395,55 396,56 397,56 400,58 405,61 408,64 412,67 414,70 418,73 421,76 424,80 426,82 428,85 430,87 431,91 433,94 438,101 438,103 441,107 442,111 442,114 443,120 443,125 443,128 443,132 443,136 443,139 443,144 441,147 440,152 438,155 436,159 432,166 430,167 428,172 426,176 425,179 424,181 422,183 420,186 419,188 418,190 417,193 416,196 416,198 416,202 416,203 416,205 416,207 416,208 416,211 416,212 416,214 417,217 417,218 419,222 421,225 421,227 422,229 423,230 424,232 424,233 426,236 428,240 431,245 434,248 437,255 441,260 444,265 446,267 448,268 449,269 450,272 452,274 455,277 456,278 456,279 457,280 459,282 460,283 461,284 461,286 462,291 464,293 464,295 465,299 467,303 468,306 468,309 468,312 469,315 471,318 471,323 471,327 471,329 472,333 472,336 472,338 472,342 472,346 472,353 472,357 472,363 472,365 470,369 470,371 468,374 467,376 466,377 465,378 461,379 457,382 454,385 449,387 445,390 440,391 436,392 432,393 429,394 426,395 423,396 419,397 416,398 412,399 410,400 405,400 400,400 397,401 393,401 391,402 387,402 384,402 381,402 379,402 377,402 376,403 375,403 374,404 372,406 371,407 368,409 366,410 363,413 362,413 360,415 358,417 354,420 350,423 345,427 339,430 336,432 332,435 329,437 324,441 320,443 317,446 313,448 308,451 303,454 297,456 291,458 289,459 288,459 286,460 280,463 275,463 269,463 263,464 259,464 254,464 248,464 241,464 235,464 227,464 220,464 213,464 202,464 198,464 190,463 187,462 183,460 182,459 179,457 177,456 175,452 172,448 171,446 170,441 167,432 163,427 160,418 158,410 156,403 154,396 152,391 150,385 147,379 145,374 144,372 143,368 140,365 138,360 137,359 133,359 128,357 124,356 121,353 116,352 115,351 112,351 110,349 107,349 103,349 101,348 99,347 96,346 88,344 83,344 76,343 74,342 73,342 71,342 70,342 67,341 64,341 63,341 62,341 54,338 46,338 45,337 43,336 41,335 39,333 37,331 36,330 35,326 32,323 29,318 28,315 26,311 25,305 24,299 23,296 23,292 23,289 23,284 23,280 23,276 23,271 23,268 23,264 25,260 27,254 28,250 29,246 30,243 30,240 33,236 33,235 34,234 35,232 36,231 37,231 38,229 40,228 42,225 43,222 43,221 45,220 45,218 46,217 46,215 47,211 49,209 49,205 49,201 49,198 51,193 52,191 53,191 53,189 53,188 53,186 53,185 53,183 53,182 53,179 53,176 52,172 50,169 47,165 46,163 45,161 44,160 43,158 43,156 42,156 41,153 41,151 41,148 41,146 41,143 41,141 41,138 41,136 41,134 41,133 41,131 41,128 41,127 41,126 41,125 41,124 42,121 42,119 43,119"></polygon>
</svg>

